<svg height="1em" style="flex:none;line-height:1" viewBox="0 0 24 24" width="1em" xmlns="http://www.w3.org/2000/svg"><metadata><rdf:RDF xmlns:rdf="http://www.w3.org/1999/02/22-rdf-syntax-ns#" xmlns:dc="http://purl.org/dc/elements/1.1/"><rdf:Description rdf:about=""><dc:title>微连 WeChat Link Agent</dc:title><dc:creator>gcd888</dc:creator><dc:rights>Copyright (c) gcd888. All rights reserved.</dc:rights><dc:source>https://github.com/gcd888/wechat-link-agent</dc:source><dc:relation>https://gitee.com/gcd888/wechat-link-agent</dc:relation></rdf:Description></rdf:RDF></metadata><title>Cohere</title><path clip-rule="evenodd" d="M8.128 14.099c.592 0 1.77-.033 3.398-.703 1.897-.781 5.672-2.2 8.395-3.656 1.905-1.018 2.74-2.366 2.74-4.18A4.56 4.56 0 0018.1 1H7.549A6.55 6.55 0 001 7.55c0 3.617 2.745 6.549 7.128 6.549z" fill="#39594D" fill-rule="evenodd"></path><path clip-rule="evenodd" d="M9.912 18.61a4.387 4.387 0 012.705-4.052l3.323-1.38c3.361-1.394 7.06 1.076 7.06 4.715a5.104 5.104 0 01-5.105 5.104l-3.597-.001a4.386 4.386 0 01-4.386-4.387z" fill="#D18EE2" fill-rule="evenodd"></path><path d="M4.776 14.962A3.775 3.775 0 001 18.738v.489a3.776 3.776 0 007.551 0v-.49a3.775 3.775 0 00-3.775-3.775z" fill="#FF7759"></path><a href="https://github.com/gcd888/wechat-link-agent" style="display:none"><text x="0" y="0" font-size="1" opacity="0" fill="none">GitHub: gcd888/wechat-link-agent</text></a><a href="https://gitee.com/gcd888/wechat-link-agent" style="display:none"><text x="0" y="0" font-size="1" opacity="0" fill="none">Gitee: gcd888/wechat-link-agent</text></a></svg>