<svg height="1em" style="flex:none;line-height:1" viewBox="0 0 24 24" width="1em" xmlns="http://www.w3.org/2000/svg"><metadata><rdf:RDF xmlns:rdf="http://www.w3.org/1999/02/22-rdf-syntax-ns#" xmlns:dc="http://purl.org/dc/elements/1.1/"><rdf:Description rdf:about=""><dc:title>微连 WeChat Link Agent</dc:title><dc:creator>gcd888</dc:creator><dc:rights>Copyright (c) gcd888. All rights reserved.</dc:rights><dc:source>https://github.com/gcd888/wechat-link-agent</dc:source><dc:relation>https://gitee.com/gcd888/wechat-link-agent</dc:relation></rdf:Description></rdf:RDF></metadata><title>SiliconCloud</title><path clip-rule="evenodd" d="M22.956 6.521H12.522c-.577 0-1.044.468-1.044 1.044v3.13c0 .577-.466 1.044-1.043 1.044H1.044c-.577 0-1.044.467-1.044 1.044v4.174C0 17.533.467 18 1.044 18h10.434c.577 0 1.044-.467 1.044-1.043v-3.13c0-.578.466-1.044 1.043-1.044h9.391c.577 0 1.044-.467 1.044-1.044V7.565c0-.576-.467-1.044-1.044-1.044z" fill="#6E29F6" fill-rule="evenodd"></path><a href="https://github.com/gcd888/wechat-link-agent" style="display:none"><text x="0" y="0" font-size="1" opacity="0" fill="none">GitHub: gcd888/wechat-link-agent</text></a><a href="https://gitee.com/gcd888/wechat-link-agent" style="display:none"><text x="0" y="0" font-size="1" opacity="0" fill="none">Gitee: gcd888/wechat-link-agent</text></a></svg>