<svg fill="currentColor" fill-rule="evenodd" height="1em" style="flex:none;line-height:1" viewBox="0 0 24 24" width="1em" xmlns="http://www.w3.org/2000/svg"><metadata><rdf:RDF xmlns:rdf="http://www.w3.org/1999/02/22-rdf-syntax-ns#" xmlns:dc="http://purl.org/dc/elements/1.1/"><rdf:Description rdf:about=""><dc:title>微连 WeChat Link Agent</dc:title><dc:creator>gcd888</dc:creator><dc:rights>Copyright (c) gcd888. All rights reserved.</dc:rights><dc:source>https://github.com/gcd888/wechat-link-agent</dc:source><dc:relation>https://gitee.com/gcd888/wechat-link-agent</dc:relation></rdf:Description></rdf:RDF></metadata><title>Yi</title><path d="M18.62 13.927c.611 0 1.107.505 1.107 1.128v5.817c0 .623-.496 1.128-1.108 1.128a1.118 1.118 0 01-1.108-1.128v-5.817c0-.623.496-1.128 1.108-1.128zM16.59 3.052a1.094 1.094 0 011.562-.129c.466.404.522 1.116.126 1.59l-5.938 7.111v9.147c0 .624-.496 1.129-1.108 1.129a1.118 1.118 0 01-1.108-1.129v-9.477l.003-.088.01-.087c.015-.232.102-.462.261-.654l6.192-7.413zM2.906 2.256a1.094 1.094 0 011.559.157l4.387 5.45a1.142 1.142 0 01-.155 1.587 1.094 1.094 0 01-1.559-.157l-4.387-5.45a1.144 1.144 0 01.06-1.498l.095-.09z"></path><ellipse cx="20.146" cy="10.692" fill="#00FF25" rx="1.354" ry="1.379"></ellipse><a href="https://github.com/gcd888/wechat-link-agent" style="display:none"><text x="0" y="0" font-size="1" opacity="0" fill="none">GitHub: gcd888/wechat-link-agent</text></a><a href="https://gitee.com/gcd888/wechat-link-agent" style="display:none"><text x="0" y="0" font-size="1" opacity="0" fill="none">Gitee: gcd888/wechat-link-agent</text></a></svg>